<svg xmlns="http://www.w3.org/2000/svg" xmlns:xlink="http://www.w3.org/1999/xlink" width="500" zoomAndPan="magnify" viewBox="0 0 375 374.999991" height="500" preserveAspectRatio="xMidYMid meet" version="1.0"><defs><clipPath id="id1"><path d="M 76.019531 46.410156 L 281 46.410156 L 281 337.464844 L 76.019531 337.464844 Z M 76.019531 46.410156 " clip-rule="nonzero"/></clipPath><clipPath id="id2"><path d="M 69.351562 37.5 L 328.851562 37.5 L 328.851562 337.5 L 69.351562 337.5 Z M 69.351562 37.5 " clip-rule="nonzero"/></clipPath></defs><g clip-path="url(#id1)"><path fill="#131312" d="M 76.398438 175.636719 C 76.714844 175.585938 77.027344 175.53125 77.347656 175.503906 C 77.925781 175.445312 78.5 175.417969 79.078125 175.417969 C 80.222656 175.417969 81.363281 175.535156 82.480469 175.761719 L 82.480469 52.789062 L 142.628906 52.789062 C 143.726562 50.613281 144.945312 48.582031 146.269531 46.703125 L 76.398438 46.703125 Z M 274.621094 331.378906 L 250.851562 331.378906 L 256.734375 337.464844 L 280.707031 337.464844 L 280.707031 209.308594 L 274.621094 209.367188 Z M 82.480469 202.628906 C 81.902344 202.777344 81.3125 202.894531 80.699219 202.960938 L 80.324219 199.175781 L 80.695312 202.960938 C 80.277344 203.003906 79.859375 203.027344 79.445312 203.027344 C 78.394531 203.027344 77.378906 202.875 76.398438 202.632812 L 76.398438 337.464844 L 140.574219 337.464844 L 143.507812 331.378906 L 82.480469 331.378906 Z M 194.675781 331.378906 L 194.011719 337.464844 L 227.386719 337.464844 L 221.054688 331.378906 Z M 212.808594 46.703125 C 214.035156 48.199219 215.191406 49.8125 216.273438 51.535156 C 216.527344 51.945312 216.777344 52.367188 217.027344 52.789062 L 274.621094 52.789062 L 274.621094 97.613281 L 280.707031 98.144531 L 280.707031 46.703125 L 212.808594 46.703125 " fill-opacity="1" fill-rule="nonzero"/></g><g clip-path="url(#id2)"><path fill="#fcd205" d="M 80.324219 199.175781 C 83.558594 198.859375 86.296875 196.460938 87.832031 193.386719 C 90.65625 192.507812 98.320312 190.035156 102.945312 188.546875 C 103.699219 189.125 104.53125 189.457031 105.414062 189.457031 C 105.625 189.457031 105.839844 189.4375 106.050781 189.398438 C 106.203125 189.390625 106.40625 189.382812 106.652344 189.375 L 110.652344 229.730469 C 109.402344 232.25 108.726562 235.589844 108.925781 239.191406 C 109.15625 243.492188 110.585938 247.183594 112.605469 249.414062 L 113.308594 256.511719 L 113.261719 255.851562 L 113.527344 258.703125 L 158.644531 255.757812 C 158.378906 256.390625 158.140625 257.054688 157.9375 257.757812 C 156.265625 257.859375 154.730469 257.960938 154.25 258.003906 C 151.632812 258.265625 149.710938 261.359375 149.347656 265.40625 C 149.15625 266.347656 149.078125 267.371094 149.136719 268.433594 C 149.164062 268.945312 149.234375 269.433594 149.316406 269.902344 C 141.867188 274.800781 125.949219 285.410156 120.960938 288.738281 C 119.699219 288.207031 118.382812 288.222656 117.371094 288.914062 C 116.695312 289.371094 116.25 290.0625 116.03125 290.871094 C 111.710938 293.210938 98.476562 300.839844 98.167969 301.046875 C 96.027344 302.507812 95.863281 305.996094 97.804688 308.84375 C 99.421875 311.214844 101.980469 312.386719 104.027344 311.878906 C 104.59375 311.773438 105.210938 311.5625 105.851562 311.171875 C 106.109375 311.011719 106.34375 310.832031 106.546875 310.644531 C 106.839844 310.371094 117.570312 301.40625 121.246094 298.410156 C 122.050781 298.484375 122.820312 298.324219 123.472656 297.878906 C 124.429688 297.226562 124.921875 296.101562 124.953125 294.828125 C 130.019531 291.5 147.269531 280.167969 152.941406 276.472656 C 153.273438 276.761719 153.617188 277.007812 153.980469 277.199219 C 153.640625 276.976562 153.3125 276.691406 153.003906 276.378906 C 154.296875 277.300781 155.542969 277.59375 156.597656 277.601562 C 156.464844 277.628906 156.335938 277.660156 156.199219 277.671875 C 156.519531 277.640625 158.210938 277.515625 160.015625 277.378906 C 161.257812 279.660156 162.800781 281.460938 164.507812 282.578125 C 167.425781 284.664062 169.769531 283.875 170.171875 283.714844 C 171.585938 283.558594 174.207031 283.273438 177.25 282.941406 L 177.394531 283.054688 L 178.390625 293.480469 C 167.234375 294.984375 159.222656 296.851562 159.253906 297.140625 C 159.261719 297.265625 156.527344 302.160156 155.265625 304.519531 L 155.875 303.535156 L 154.847656 305.378906 L 154.8125 305.378906 C 154.8125 305.386719 154.808594 305.390625 154.800781 305.398438 C 152.671875 305.800781 151.488281 306.132812 151.511719 306.355469 C 151.515625 306.375 151.53125 306.390625 151.554688 306.40625 L 151.515625 306.410156 L 152.140625 312.691406 C 151.992188 312.703125 151.871094 312.71875 151.785156 312.726562 C 150.84375 312.816406 149.976562 313.171875 149.222656 313.714844 L 149.304688 313.703125 C 149.203125 313.773438 149.082031 313.863281 148.953125 313.972656 L 148.878906 313.976562 C 147.078125 315.476562 146.027344 318.144531 146.316406 321.058594 C 146.578125 323.742188 147.921875 326 149.742188 327.214844 L 144.953125 337.136719 L 190.226562 337.136719 L 191.734375 323.257812 L 202.796875 322.160156 C 203.507812 322.089844 204.011719 320.921875 204.128906 319.3125 C 204.671875 320.53125 206.691406 323.679688 212.957031 323.5 C 213.609375 323.351562 214.152344 323.230469 214.625 323.121094 C 214.09375 323.3125 213.535156 323.445312 212.957031 323.5 C 213.90625 323.410156 215.769531 323.027344 217.742188 322.589844 C 217.597656 322.660156 217.5 322.695312 217.5 322.695312 L 232.539062 337.136719 L 251.132812 337.136719 L 230.195312 315.476562 C 230.476562 314.472656 230.585938 313.378906 230.476562 312.253906 C 230.09375 308.382812 227.28125 305.402344 223.875 304.933594 L 223.316406 299.292969 L 223.285156 299.296875 C 223.296875 299.277344 223.3125 299.253906 223.308594 299.238281 C 223.292969 299.039062 222.316406 298.945312 220.570312 298.941406 C 219.523438 297.597656 214.554688 291.808594 214.542969 291.660156 C 214.507812 291.371094 206.285156 291.113281 195.050781 291.828125 L 194.019531 281.105469 C 194.496094 281.054688 194.839844 281.019531 195.007812 281.003906 C 200.648438 280.445312 204.527344 272.980469 203.585938 263.507812 C 202.933594 256.960938 200.203125 251.652344 196.710938 249.164062 L 228.976562 242.988281 L 229.601562 242.878906 L 229.601562 242.871094 L 229.949219 242.804688 L 229.601562 242.824219 L 229.734375 240.609375 L 225.59375 198.855469 C 225.558594 198.882812 225.527344 198.90625 225.496094 198.933594 C 228.65625 196.320312 231.117188 192.605469 232.597656 188.183594 C 232.765625 188.304688 232.867188 188.363281 232.867188 188.363281 L 254.035156 200.6875 C 256.800781 203.4375 260.453125 205.328125 264.316406 205.660156 L 315.609375 205.175781 C 323.199219 205.832031 328.800781 200.273438 328.066406 192.824219 L 320.730469 118.863281 C 319.996094 111.410156 313.179688 104.777344 305.589844 104.117188 L 253.800781 99.628906 C 247.480469 99.074219 242.550781 102.847656 241.503906 108.425781 C 239.605469 112.25 235.671875 120.15625 232.410156 126.757812 L 232.402344 126.6875 L 232.210938 127.160156 C 230.484375 130.65625 228.964844 133.75 228.0625 135.609375 C 224.820312 142.335938 225.632812 144.820312 225.632812 144.820312 C 225.632812 144.820312 225.941406 147.9375 226.378906 152.363281 C 225.828125 152.890625 225.316406 153.472656 224.84375 154.105469 C 223.507812 152.683594 222.050781 151.429688 220.519531 150.359375 C 220.617188 150.425781 220.710938 150.484375 220.804688 150.546875 L 219.890625 141.359375 L 191.152344 139.445312 C 191.6875 139.0625 192.609375 138.777344 194.171875 138.761719 C 195.148438 138.75 196 138.632812 196.734375 138.441406 C 212.496094 136.078125 223.972656 112.96875 222.503906 86.109375 C 221.097656 60.457031 208.390625 40.503906 193.441406 39.433594 C 192.460938 39.363281 173.953125 37.960938 169.1875 37.667969 C 169.21875 37.671875 169.246094 37.679688 169.277344 37.679688 C 168.246094 37.597656 167.203125 37.605469 166.152344 37.707031 C 154.066406 38.910156 144.351562 52.1875 140.738281 70.179688 C 140.007812 70.019531 139.28125 69.898438 138.535156 69.84375 C 137.65625 69.78125 121.125 68.53125 116.863281 68.269531 C 116.917969 68.273438 116.980469 68.28125 117.035156 68.289062 C 116.714844 68.257812 116.398438 68.25 116.074219 68.242188 C 116.335938 68.246094 116.597656 68.25 116.859375 68.265625 C 116.792969 68.261719 116.71875 68.257812 116.65625 68.253906 C 116.449219 68.242188 116.238281 68.242188 116.027344 68.242188 C 115.40625 68.230469 114.78125 68.242188 114.152344 68.304688 C 99.574219 69.75 88.84375 90.863281 90.1875 115.460938 C 91.074219 131.609375 96.945312 145.226562 104.996094 152.28125 C 105.992188 153.238281 107.078125 154.027344 108.207031 154.671875 C 108.222656 154.6875 108.242188 154.695312 108.261719 154.707031 C 108.289062 154.726562 108.316406 154.742188 108.34375 154.757812 C 108.613281 154.921875 108.886719 155.082031 109.15625 155.230469 C 109.089844 155.183594 109.027344 155.136719 108.960938 155.089844 C 114.503906 157.949219 120.5625 157.660156 120.5625 157.660156 L 120.28125 159.234375 L 104.292969 165.550781 L 104.703125 169.699219 C 104.285156 169.71875 103.980469 169.734375 103.828125 169.746094 C 101.5 169.976562 99.734375 172.453125 99.117188 175.839844 C 99.089844 175.855469 99.0625 175.867188 99.039062 175.882812 C 99.042969 175.871094 99.042969 175.855469 99.042969 175.84375 C 94.492188 177.492188 88.070312 179.84375 85.273438 180.855469 C 83.152344 179.554688 80.421875 179.019531 77.726562 179.285156 C 72.386719 179.816406 69.328125 184.183594 69.882812 189.761719 C 70.429688 195.339844 74.988281 199.707031 80.324219 199.175781 " fill-opacity="1" fill-rule="nonzero"/><path fill="#131312" d="M 154.054688 260.535156 L 154.023438 260.535156 C 153.984375 260.53125 153.945312 260.53125 153.902344 260.53125 C 153.957031 260.53125 154.003906 260.53125 154.054688 260.535156 Z M 109.15625 155.230469 C 99.910156 148.917969 92.960938 134.246094 91.996094 116.558594 C 90.652344 91.960938 101.382812 70.847656 115.960938 69.402344 C 119.335938 69.066406 122.617188 69.832031 125.691406 71.488281 C 126.40625 71.96875 127.105469 72.484375 127.789062 73.0625 L 140.082031 73.949219 C 140.054688 74.117188 140.03125 74.285156 140.007812 74.449219 L 129.929688 75.058594 C 130.015625 75.148438 130.097656 75.246094 130.183594 75.335938 L 139.832031 75.738281 C 139.785156 76.105469 139.746094 76.480469 139.703125 76.847656 L 132.242188 77.742188 C 132.277344 77.796875 132.320312 77.847656 132.363281 77.898438 L 139.5625 78.199219 C 139.488281 79.015625 139.425781 79.832031 139.375 80.660156 L 134.800781 81.472656 C 134.898438 81.632812 134.996094 81.792969 135.089844 81.957031 L 139.300781 82.070312 C 139.238281 83.429688 139.210938 84.804688 139.21875 86.191406 L 137.5 86.621094 C 137.566406 86.757812 137.628906 86.886719 137.6875 87.023438 L 139.226562 87.109375 C 139.242188 88.226562 139.277344 89.351562 139.335938 90.484375 C 139.730469 97.714844 141.019531 104.492188 143 110.527344 C 144.003906 130.304688 137.207031 147.773438 126.898438 154.511719 L 135.972656 150.957031 C 142.410156 145.019531 146.660156 133.59375 146.75 120.53125 C 148.765625 124.742188 154.941406 135.925781 164.984375 139.589844 L 168.726562 138.121094 C 165.625 137.414062 163.742188 136.605469 161.730469 135.582031 C 160.949219 135.160156 160.1875 134.679688 159.441406 134.171875 C 149.65625 126.71875 142.402344 110.78125 141.359375 91.710938 C 139.851562 64.183594 151.859375 40.558594 168.175781 38.9375 C 171.957031 38.5625 175.628906 39.421875 179.074219 41.273438 C 179.867188 41.8125 180.652344 42.390625 181.417969 43.03125 L 199.359375 44.332031 L 183.808594 45.273438 C 183.90625 45.371094 184 45.476562 184.09375 45.578125 L 202.488281 46.34375 L 186.394531 48.273438 C 186.441406 48.332031 186.484375 48.390625 186.527344 48.449219 L 206.917969 49.296875 L 189.261719 52.449219 C 189.371094 52.628906 189.480469 52.808594 189.585938 52.988281 L 210.707031 53.5625 L 192.289062 58.214844 C 192.355469 58.359375 192.429688 58.507812 192.492188 58.65625 L 214.609375 59.960938 L 194.996094 65.339844 C 195.089844 65.644531 195.1875 65.941406 195.277344 66.25 L 215.714844 67.167969 L 196.453125 70.65625 C 196.5 70.859375 196.542969 71.066406 196.59375 71.269531 L 215.820312 72.339844 L 197.1875 74.183594 C 197.800781 77.53125 198.230469 81.019531 198.425781 84.625 C 199.929688 112.15625 187.921875 135.785156 171.605469 137.402344 C 175.003906 137.0625 190.632812 139.085938 195.847656 138.570312 C 212.0625 136.960938 224 113.472656 222.503906 86.113281 C 221.097656 60.457031 208.390625 40.503906 193.441406 39.433594 C 192.460938 39.363281 173.953125 37.960938 169.1875 37.667969 C 169.21875 37.671875 169.246094 37.679688 169.277344 37.679688 C 168.246094 37.601562 167.203125 37.605469 166.152344 37.707031 C 154.066406 38.910156 144.351562 52.1875 140.738281 70.179688 C 140.007812 70.019531 139.28125 69.898438 138.535156 69.847656 C 137.65625 69.78125 121.125 68.53125 116.863281 68.269531 C 116.917969 68.273438 116.980469 68.28125 117.035156 68.289062 C 116.714844 68.257812 116.398438 68.25 116.074219 68.242188 C 116.335938 68.246094 116.597656 68.25 116.859375 68.265625 C 116.792969 68.265625 116.71875 68.257812 116.65625 68.253906 C 116.449219 68.242188 116.238281 68.242188 116.027344 68.242188 C 115.40625 68.230469 114.78125 68.242188 114.152344 68.304688 C 99.574219 69.75 88.84375 90.863281 90.1875 115.460938 C 91.21875 134.28125 99.019531 149.675781 109.15625 155.230469 Z M 164.554688 67.59375 C 164.617188 67.605469 164.675781 67.617188 164.71875 67.628906 C 164.746094 67.632812 164.769531 67.644531 164.792969 67.648438 C 164.71875 67.628906 164.636719 67.617188 164.554688 67.59375 Z M 159.429688 74.589844 C 159.449219 74.597656 159.460938 74.605469 159.480469 74.605469 C 159.425781 74.59375 159.371094 74.582031 159.3125 74.566406 C 159.355469 74.574219 159.398438 74.582031 159.429688 74.589844 Z M 168.726562 109.890625 C 175.679688 109.203125 180.800781 99.125 180.160156 87.390625 C 179.558594 76.386719 174.109375 67.828125 167.695312 67.371094 C 167.273438 67.339844 163.902344 67.199219 162.25 67.398438 C 162.269531 67.402344 162.304688 67.402344 162.332031 67.402344 C 162.234375 67.410156 162.132812 67.40625 162.039062 67.421875 C 157.320312 67.886719 153.445312 72.660156 151.621094 79.335938 C 150.148438 82.191406 149.347656 86.03125 149.570312 90.171875 C 149.800781 94.328125 151.023438 97.976562 152.796875 100.507812 C 154.449219 104.546875 156.855469 107.621094 159.640625 109.144531 C 157.46875 107.664062 155.570312 105.207031 154.132812 102.101562 C 154.691406 102.648438 155.28125 103.097656 155.898438 103.4375 C 152.820312 101.332031 150.5 96.4375 150.175781 90.539062 C 149.726562 82.332031 153.308594 75.292969 158.167969 74.808594 C 159.289062 74.703125 160.378906 74.957031 161.398438 75.503906 C 164.511719 77.585938 166.855469 82.492188 167.183594 88.429688 C 167.628906 96.632812 164.054688 103.671875 159.191406 104.15625 C 160.203125 104.054688 160.660156 104.109375 162.214844 103.957031 C 167.046875 103.476562 170.605469 96.476562 170.15625 88.320312 C 169.738281 80.675781 165.949219 74.730469 161.496094 74.410156 C 161.203125 74.386719 158.859375 74.292969 157.710938 74.433594 C 157.726562 74.433594 157.75 74.433594 157.769531 74.433594 C 157.703125 74.441406 157.632812 74.4375 157.566406 74.445312 C 156.128906 74.589844 154.808594 75.304688 153.664062 76.453125 C 155.738281 71.609375 159.035156 68.332031 162.90625 67.945312 C 164.507812 67.789062 166.066406 68.148438 167.53125 68.925781 C 172.023438 71.914062 175.414062 78.984375 175.878906 87.542969 C 176.527344 99.351562 171.375 109.488281 164.375 110.179688 C 165.835938 110.035156 166.492188 110.113281 168.726562 109.890625 Z M 164.539062 108.171875 C 164.574219 108.167969 164.609375 108.167969 164.644531 108.164062 C 170.890625 107.546875 175.476562 98.226562 174.878906 87.351562 C 174.285156 76.480469 168.738281 68.164062 162.492188 68.785156 C 160.664062 68.964844 158.980469 69.890625 157.527344 71.382812 C 158.859375 70.167969 160.367188 69.40625 161.988281 69.246094 C 168.171875 68.636719 173.664062 76.863281 174.253906 87.628906 C 174.828125 98.148438 170.507812 107.191406 164.539062 108.171875 Z M 264.917969 156.71875 L 315.761719 130.152344 L 264.082031 150.496094 L 313.144531 123.457031 L 260.125 147.847656 L 317.023438 114.445312 C 318.121094 116.285156 318.847656 118.316406 319.058594 120.425781 L 321.503906 145.097656 Z M 265.261719 203.183594 C 258.027344 202.554688 251.53125 196.230469 250.824219 189.125 L 243.367188 113.859375 C 242.664062 106.753906 248.003906 101.453125 255.242188 102.082031 L 304.617188 106.363281 C 305.050781 106.402344 305.480469 106.460938 305.910156 106.539062 C 306.085938 106.570312 306.253906 106.617188 306.425781 106.65625 C 306.671875 106.710938 306.917969 106.761719 307.160156 106.828125 C 307.390625 106.890625 307.609375 106.964844 307.832031 107.039062 C 308.015625 107.097656 308.195312 107.152344 308.375 107.21875 C 308.632812 107.3125 308.882812 107.421875 309.140625 107.527344 C 309.269531 107.582031 309.402344 107.640625 309.535156 107.699219 C 309.816406 107.828125 310.097656 107.972656 310.371094 108.117188 C 310.460938 108.167969 310.550781 108.214844 310.640625 108.261719 C 310.941406 108.429688 311.242188 108.605469 311.53125 108.796875 C 311.585938 108.832031 311.640625 108.863281 311.695312 108.898438 C 312.007812 109.105469 312.316406 109.320312 312.613281 109.550781 C 312.640625 109.566406 312.664062 109.585938 312.691406 109.605469 C 313.007812 109.851562 313.316406 110.101562 313.621094 110.367188 C 311.515625 109.011719 309.132812 108.113281 306.652344 107.902344 L 257.277344 103.617188 C 250.039062 102.988281 244.691406 108.289062 245.398438 115.390625 L 248.59375 147.613281 L 252.636719 147.964844 C 255.660156 148.226562 258.375 150.867188 258.667969 153.835938 L 261.589844 183.292969 C 261.699219 184.414062 261.449219 185.425781 260.933594 186.238281 C 269.566406 188.984375 302.863281 199.570312 312.957031 202.730469 Z M 235.800781 188.5 C 229.378906 185.546875 230.003906 179.574219 230.003906 179.574219 C 230.003906 179.574219 227.125 150.554688 226.6875 146.117188 C 226.410156 143.378906 227.230469 140.734375 227.898438 139.113281 L 233.488281 181.566406 L 229.253906 136.371094 L 231.058594 132.921875 L 237.734375 183.636719 L 232.695312 129.800781 L 235.722656 124.019531 L 244.210938 188.554688 L 237.800781 120.046875 L 241.457031 113.066406 L 249.175781 190.914062 C 249.320312 192.390625 249.714844 193.832031 250.292969 195.203125 C 246.675781 193.527344 240.242188 190.542969 235.800781 188.5 Z M 213.683594 200.050781 C 211.089844 200.039062 208.550781 199.414062 206.164062 198.300781 C 208.289062 199.199219 210.53125 199.699219 212.8125 199.707031 C 221.316406 199.746094 227.914062 193.074219 229.792969 183.691406 C 230.035156 184.496094 230.324219 185.175781 230.621094 185.742188 C 228.164062 194.238281 221.761719 200.085938 213.683594 200.050781 Z M 225.625 236.273438 L 227.40625 239.035156 C 227.230469 239.148438 227.039062 239.214844 226.820312 239.214844 C 226.070312 239.210938 225.390625 238.449219 225.300781 237.515625 C 225.25 237.023438 225.378906 236.578125 225.625 236.273438 Z M 226.492188 235.828125 C 227.242188 235.832031 227.925781 236.59375 228.011719 237.527344 C 228.050781 237.921875 227.972656 238.277344 227.820312 238.5625 L 226.105469 235.910156 C 226.230469 235.863281 226.355469 235.828125 226.492188 235.828125 Z M 217.761719 218.328125 C 216.4375 220.535156 210.019531 231.113281 210.019531 231.113281 C 210.019531 231.113281 209.199219 232.722656 208.292969 232.835938 C 207.386719 232.949219 205.890625 231.410156 205.890625 231.410156 C 205.890625 231.410156 198.847656 223.078125 194.488281 218.113281 C 190.128906 213.148438 196.050781 214.28125 196.050781 214.28125 L 216.167969 215.132812 C 216.167969 215.132812 219.789062 214.957031 217.761719 218.328125 Z M 188.738281 240.433594 L 186.808594 237.453125 C 186.945312 237.398438 187.085938 237.359375 187.242188 237.359375 C 188.085938 237.363281 188.851562 238.214844 188.953125 239.269531 C 188.996094 239.710938 188.910156 240.113281 188.738281 240.433594 Z M 187.609375 241.164062 C 186.765625 241.160156 186 240.304688 185.898438 239.257812 C 185.847656 238.699219 185.992188 238.203125 186.265625 237.859375 L 188.265625 240.960938 C 188.078125 241.085938 187.855469 241.164062 187.609375 241.164062 Z M 178.347656 176.722656 C 177.015625 162.921875 183.808594 151.453125 194.03125 148.945312 C 194.300781 148.882812 194.832031 148.757812 195.535156 148.597656 C 188.191406 153.753906 183.835938 163.570312 184.917969 174.820312 C 186.363281 189.851562 197.007812 202.285156 209.554688 204.453125 C 208.292969 204.71875 207.1875 204.929688 206.558594 205.023438 C 205.675781 205.15625 204.773438 205.222656 203.847656 205.214844 C 191.277344 205.15625 179.855469 192.40625 178.347656 176.722656 Z M 175.917969 142.695312 C 175.863281 142.140625 176.011719 141.644531 176.28125 141.300781 L 178.285156 144.402344 C 178.09375 144.53125 177.871094 144.605469 177.625 144.605469 C 176.785156 144.601562 176.019531 143.746094 175.917969 142.695312 Z M 177.261719 140.800781 C 178.101562 140.804688 178.871094 141.660156 178.972656 142.707031 C 179.011719 143.152344 178.925781 143.554688 178.753906 143.875 L 176.824219 140.890625 C 176.960938 140.835938 177.105469 140.800781 177.261719 140.800781 Z M 206.207031 146.449219 C 206.515625 146.414062 206.828125 146.386719 207.136719 146.363281 C 195.292969 147.199219 187.015625 159.5 188.472656 174.601562 C 189.984375 190.28125 201.402344 203.039062 213.972656 203.09375 C 215.128906 203.097656 216.25 202.992188 217.339844 202.789062 C 217.277344 202.800781 217.214844 202.816406 217.148438 202.828125 C 216.511719 202.9375 213.429688 203.632812 210.667969 204.21875 C 198.089844 202.191406 187.375 189.777344 185.925781 174.738281 C 184.820312 163.230469 189.433594 153.242188 197.117188 148.246094 C 200.234375 147.566406 204.664062 146.640625 206.207031 146.449219 Z M 203.078125 183.671875 C 202.488281 179.652344 203.730469 176.148438 206.0625 174.253906 C 206.429688 174.140625 206.816406 174.015625 207.214844 173.890625 C 204.816406 175.894531 203.4375 179.292969 203.808594 183.148438 C 204.363281 188.921875 208.644531 193.652344 213.589844 194.175781 C 213.199219 194.300781 212.796875 194.429688 212.394531 194.558594 C 207.9375 193.84375 203.890625 189.242188 203.078125 183.671875 Z M 203.535156 175.035156 C 203.574219 175.027344 203.652344 175.003906 203.761719 174.972656 C 201.417969 176.871094 200.175781 180.378906 200.765625 184.398438 C 201.578125 189.972656 205.617188 194.574219 210.074219 195.285156 C 209.128906 195.582031 208.398438 195.796875 208.179688 195.828125 C 207.851562 195.875 207.515625 195.894531 207.175781 195.894531 C 202.515625 195.878906 198.28125 191.144531 197.726562 185.332031 C 197.226562 180.21875 199.746094 175.96875 203.535156 175.035156 Z M 197.027344 163.359375 C 197.660156 167.714844 200.820312 171.316406 204.304688 171.871094 C 203.566406 172.101562 202.992188 172.273438 202.820312 172.292969 C 202.566406 172.332031 202.300781 172.351562 202.039062 172.347656 C 198.394531 172.335938 195.082031 168.636719 194.644531 164.089844 C 194.257812 160.089844 196.226562 156.765625 199.191406 156.039062 C 199.222656 156.03125 199.28125 156.011719 199.363281 155.988281 C 197.535156 157.472656 196.5625 160.214844 197.027344 163.359375 Z M 214.367188 162.121094 C 214.597656 164.550781 213.957031 166.726562 212.757812 168.222656 C 212.777344 168.789062 212.820312 169.367188 212.910156 169.957031 C 213.015625 170.679688 213.175781 171.378906 213.375 172.066406 C 213.046875 172.027344 212.722656 172.003906 212.390625 172.007812 C 211.484375 172.007812 210.628906 172.164062 209.824219 172.4375 C 209.722656 171.957031 209.636719 171.472656 209.589844 170.972656 C 209.566406 170.71875 209.558594 170.472656 209.542969 170.226562 C 209.519531 170.230469 209.503906 170.238281 209.476562 170.242188 C 209.320312 170.269531 207.714844 170.792969 206.117188 171.300781 C 202.628906 170.746094 199.46875 167.144531 198.835938 162.789062 C 198.371094 159.648438 199.34375 156.910156 201.167969 155.429688 C 203.125 154.8125 205.875 153.953125 206.304688 153.898438 C 206.523438 153.871094 206.746094 153.859375 206.96875 153.863281 C 210.171875 153.875 213.113281 156.726562 214.078125 160.496094 C 214.660156 160.164062 215.277344 159.902344 215.933594 159.742188 C 215.972656 159.730469 216.058594 159.707031 216.175781 159.671875 C 215.457031 160.253906 214.832031 160.980469 214.324219 161.816406 C 214.335938 161.917969 214.351562 162.019531 214.367188 162.121094 Z M 223.449219 156.378906 C 222.914062 157.445312 222.472656 158.601562 222.152344 159.832031 C 220.289062 161.714844 219.25 164.730469 219.578125 168.144531 C 219.964844 172.171875 222.148438 175.660156 225.003906 177.390625 C 225.703125 178.511719 226.488281 179.542969 227.347656 180.472656 C 226.789062 180.652344 226.195312 180.84375 225.597656 181.035156 C 224.460938 180.851562 223.351562 180.433594 222.308594 179.832031 C 222.515625 180.457031 222.683594 181.105469 222.800781 181.773438 C 222.890625 181.789062 222.976562 181.816406 223.066406 181.828125 C 222.984375 181.859375 222.902344 181.878906 222.816406 181.90625 C 222.871094 182.207031 222.914062 182.507812 222.941406 182.8125 C 223.453125 188.121094 220.726562 192.5 216.691406 193.203125 C 216.546875 193.226562 215.351562 193.609375 213.90625 194.074219 C 208.992188 193.554688 204.738281 188.855469 204.1875 183.117188 C 203.597656 177.019531 207.417969 172.0625 212.714844 172.042969 C 212.933594 172.042969 213.15625 172.0625 213.375 172.078125 C 213.398438 172.136719 213.410156 172.195312 213.425781 172.253906 C 213.445312 172.253906 213.464844 172.25 213.488281 172.25 C 214.519531 172.253906 215.53125 172.503906 216.488281 172.929688 C 215.992188 171.738281 215.628906 170.472656 215.429688 169.160156 C 214.792969 164.769531 216.144531 160.957031 218.6875 158.886719 C 219.925781 158.5 221.382812 158.042969 222.675781 157.648438 C 218.679688 153.214844 213.496094 150.460938 208.070312 150.4375 C 200.941406 150.40625 195.148438 155.085938 192.355469 162.128906 C 195.109375 154.476562 201.21875 149.324219 208.800781 149.359375 C 214.21875 149.382812 219.390625 152.050781 223.449219 156.378906 Z M 216.613281 143.308594 L 218.394531 146.066406 C 218.222656 146.183594 218.027344 146.25 217.804688 146.25 C 217.058594 146.246094 216.378906 145.484375 216.289062 144.550781 C 216.242188 144.054688 216.371094 143.617188 216.613281 143.308594 Z M 217.480469 142.863281 C 218.230469 142.867188 218.914062 143.628906 219 144.558594 C 219.042969 144.957031 218.960938 145.3125 218.808594 145.601562 L 217.09375 142.945312 C 217.214844 142.898438 217.34375 142.863281 217.480469 142.863281 Z M 225.1875 156.914062 C 225.507812 156.828125 225.742188 156.769531 225.855469 156.753906 C 226.160156 156.71875 226.472656 156.699219 226.789062 156.699219 C 226.796875 156.699219 226.804688 156.703125 226.8125 156.703125 L 226.917969 157.785156 C 225.804688 160.441406 225.3125 163.589844 225.636719 166.984375 C 225.964844 170.425781 227.09375 173.628906 228.753906 176.316406 L 229.113281 179.90625 C 229.113281 179.90625 229.109375 179.90625 229.109375 179.910156 C 226.199219 176.59375 224.164062 172.066406 223.679688 167.074219 C 223.316406 163.308594 223.902344 159.816406 225.1875 156.914062 Z M 226.582031 154.398438 L 226.773438 156.359375 C 226.515625 156.023438 226.25 155.6875 225.976562 155.363281 C 226.167969 155.03125 226.371094 154.707031 226.582031 154.398438 Z M 328.066406 192.824219 L 320.730469 118.863281 C 319.996094 111.410156 313.179688 104.777344 305.589844 104.117188 L 253.800781 99.628906 C 247.480469 99.074219 242.550781 102.847656 241.503906 108.425781 C 239.605469 112.25 235.671875 120.15625 232.410156 126.757812 L 232.402344 126.6875 L 232.210938 127.164062 C 230.484375 130.65625 228.964844 133.75 228.0625 135.609375 C 224.820312 142.339844 225.632812 144.820312 225.632812 144.820312 C 225.632812 144.820312 225.941406 147.941406 226.378906 152.363281 C 225.828125 152.890625 225.316406 153.472656 224.84375 154.105469 C 223.507812 152.683594 222.050781 151.429688 220.519531 150.359375 C 220.617188 150.425781 220.710938 150.484375 220.804688 150.546875 L 219.890625 141.359375 L 173.328125 138.261719 L 183.722656 243.160156 L 229.734375 240.609375 L 225.59375 198.859375 C 225.558594 198.882812 225.527344 198.910156 225.496094 198.933594 C 228.65625 196.320312 231.117188 192.605469 232.597656 188.183594 C 232.765625 188.304688 232.867188 188.363281 232.867188 188.363281 L 254.035156 200.6875 C 256.800781 203.4375 260.453125 205.328125 264.316406 205.660156 L 315.609375 205.175781 C 323.199219 205.832031 328.800781 200.273438 328.066406 192.824219 Z M 114.269531 234.980469 C 114.265625 234.976562 114.261719 234.976562 114.253906 234.972656 C 114.246094 234.972656 114.234375 234.96875 114.222656 234.96875 C 114.238281 234.972656 114.25 234.976562 114.269531 234.980469 Z M 159.433594 74.339844 C 159.410156 74.335938 159.382812 74.335938 159.363281 74.335938 C 159.285156 74.328125 159.207031 74.328125 159.128906 74.328125 C 159.226562 74.328125 159.328125 74.328125 159.433594 74.339844 Z M 155.457031 267.875 C 155.347656 265.851562 154.285156 264.304688 153.085938 264.421875 C 152.734375 264.457031 152.410156 264.632812 152.136719 264.910156 L 154.429688 271.277344 C 155.113281 270.605469 155.539062 269.316406 155.457031 267.875 Z M 151.117188 268.308594 C 151.226562 270.332031 152.285156 271.878906 153.488281 271.761719 C 153.679688 271.742188 153.867188 271.675781 154.039062 271.578125 L 151.789062 265.339844 C 151.320312 266.0625 151.050781 267.136719 151.117188 268.308594 Z M 117.589844 250.71875 C 117.613281 250.71875 117.636719 250.71875 117.660156 250.714844 C 121.570312 250.328125 124.4375 244.496094 124.066406 237.691406 C 123.691406 230.882812 120.222656 225.679688 116.308594 226.066406 C 115.167969 226.179688 114.113281 226.761719 113.203125 227.695312 C 114.039062 226.933594 114.976562 226.460938 115.996094 226.359375 C 119.867188 225.976562 123.304688 231.125 123.671875 237.863281 C 124.035156 244.445312 121.328125 250.105469 117.589844 250.71875 Z M 113.613281 237.550781 C 113.609375 237.546875 113.609375 237.546875 113.609375 237.546875 C 113.601562 237.546875 113.597656 237.546875 113.597656 237.546875 C 113.597656 237.546875 113.605469 237.546875 113.613281 237.550781 Z M 114.175781 234.90625 C 114.199219 234.90625 114.230469 234.90625 114.253906 234.910156 C 114.246094 234.910156 114.242188 234.90625 114.242188 234.90625 C 114.214844 234.90625 114.195312 234.90625 114.175781 234.90625 Z M 115.953125 232.898438 L 115.925781 232.898438 C 115.894531 232.898438 115.863281 232.898438 115.839844 232.898438 C 115.875 232.898438 115.917969 232.898438 115.953125 232.898438 Z M 115.65625 233.128906 C 115.667969 233.132812 115.679688 233.136719 115.6875 233.140625 C 115.632812 233.125 115.578125 233.117188 115.519531 233.105469 C 115.578125 233.113281 115.625 233.117188 115.65625 233.128906 Z M 111.894531 239.078125 C 112.023438 241.476562 113.019531 243.433594 114.308594 244.140625 C 113.132812 243.339844 112.242188 241.46875 112.121094 239.21875 C 111.953125 236.085938 113.320312 233.394531 115.175781 233.214844 C 115.605469 233.167969 116.023438 233.269531 116.417969 233.480469 C 117.601562 234.277344 118.492188 236.148438 118.617188 238.414062 C 118.785156 241.542969 117.421875 244.230469 115.566406 244.417969 C 115.949219 244.378906 116.128906 244.398438 116.71875 244.339844 C 118.566406 244.15625 119.925781 241.484375 119.753906 238.371094 C 119.59375 235.453125 118.144531 233.183594 116.449219 233.058594 C 116.332031 233.050781 115.4375 233.015625 115.003906 233.070312 C 115.019531 233.070312 115.054688 233.070312 115.082031 233.074219 C 115.035156 233.074219 114.992188 233.070312 114.945312 233.074219 C 113.089844 233.257812 111.722656 235.945312 111.894531 239.078125 Z M 118.1875 238.433594 C 118.339844 241.222656 117.191406 243.625 115.609375 243.882812 C 115.621094 243.882812 115.625 243.882812 115.636719 243.878906 C 117.296875 243.714844 118.507812 241.246094 118.355469 238.363281 C 118.195312 235.476562 116.722656 233.269531 115.066406 233.4375 C 114.582031 233.480469 114.132812 233.726562 113.75 234.125 C 114.105469 233.800781 114.503906 233.601562 114.933594 233.558594 C 116.574219 233.394531 118.027344 235.578125 118.1875 238.433594 Z M 214.015625 190.066406 C 211.085938 190.054688 208.421875 187.078125 208.070312 183.417969 C 207.714844 179.757812 209.808594 176.804688 212.742188 176.816406 C 215.675781 176.832031 218.339844 179.808594 218.691406 183.464844 C 219.046875 187.121094 216.953125 190.078125 214.015625 190.066406 Z M 213.585938 173.269531 C 209.378906 173.253906 206.375 177.492188 206.878906 182.738281 C 207.386719 187.992188 211.207031 192.257812 215.414062 192.28125 C 219.625 192.296875 222.628906 188.054688 222.125 182.808594 C 221.617188 177.558594 217.792969 173.289062 213.585938 173.269531 Z M 141.191406 110.40625 C 139.941406 87.476562 128.246094 69.949219 115.070312 71.257812 C 111.21875 71.636719 107.675781 73.59375 104.609375 76.730469 C 107.417969 74.167969 110.589844 72.570312 114.011719 72.230469 C 127.054688 70.9375 138.632812 88.289062 139.875 110.984375 C 141.089844 133.167969 131.976562 152.230469 119.390625 154.296875 C 119.464844 154.289062 119.535156 154.292969 119.613281 154.285156 C 132.789062 152.980469 142.449219 133.335938 141.191406 110.40625 Z M 156.9375 84.28125 C 156.953125 84.285156 156.972656 84.289062 156.980469 84.292969 C 156.988281 84.292969 156.992188 84.296875 156.992188 84.296875 C 156.980469 84.292969 156.957031 84.289062 156.9375 84.28125 Z M 156.898438 94.773438 C 157.257812 94.738281 157.417969 94.757812 157.96875 94.699219 C 159.679688 94.53125 160.941406 92.050781 160.78125 89.160156 C 160.636719 86.449219 159.292969 84.339844 157.714844 84.230469 C 157.613281 84.21875 156.777344 84.1875 156.375 84.238281 C 156.375 84.238281 156.386719 84.238281 156.390625 84.238281 C 156.367188 84.238281 156.34375 84.238281 156.320312 84.242188 C 154.597656 84.414062 153.324219 86.910156 153.488281 89.816406 C 153.609375 92.042969 154.53125 93.863281 155.730469 94.519531 C 154.636719 93.773438 153.8125 92.035156 153.699219 89.945312 C 153.542969 87.039062 154.8125 84.542969 156.535156 84.371094 C 156.929688 84.332031 157.320312 84.421875 157.679688 84.617188 C 158.785156 85.355469 159.613281 87.09375 159.730469 89.199219 C 159.886719 92.105469 158.621094 94.601562 156.898438 94.773438 Z M 113.480469 94.253906 C 113.613281 94.253906 113.742188 94.253906 113.871094 94.265625 C 113.839844 94.261719 113.8125 94.257812 113.785156 94.257812 C 113.683594 94.253906 113.582031 94.253906 113.480469 94.253906 Z M 207.386719 167.792969 C 205.09375 167.78125 203.007812 165.453125 202.734375 162.59375 C 202.457031 159.730469 204.097656 157.421875 206.386719 157.433594 C 208.679688 157.445312 210.765625 159.769531 211.042969 162.628906 C 211.316406 165.488281 209.679688 167.800781 207.386719 167.792969 Z M 207.046875 154.65625 C 203.757812 154.644531 201.40625 157.957031 201.804688 162.066406 C 202.199219 166.167969 205.1875 169.503906 208.480469 169.519531 C 211.773438 169.535156 214.121094 166.21875 213.722656 162.117188 C 213.328125 158.011719 210.335938 154.671875 207.046875 154.65625 Z M 213.152344 218.328125 L 198.976562 217.726562 C 198.976562 217.726562 194.808594 216.929688 197.878906 220.425781 C 200.949219 223.921875 205.914062 229.792969 205.914062 229.792969 C 205.914062 229.792969 206.964844 230.878906 207.597656 230.796875 C 208.242188 230.71875 208.820312 229.582031 208.820312 229.582031 C 208.820312 229.582031 213.34375 222.132812 214.273438 220.574219 C 215.699219 218.203125 213.152344 218.328125 213.152344 218.328125 Z M 249.535156 157.121094 L 251.503906 176.972656 C 252.820312 174.191406 253.425781 170.789062 253.070312 167.109375 C 252.714844 163.382812 251.425781 159.933594 249.535156 157.121094 Z M 105.71875 119.550781 C 106.035156 119.523438 106.175781 119.539062 106.664062 119.488281 C 108.179688 119.34375 109.292969 117.148438 109.15625 114.59375 C 109.027344 112.195312 107.835938 110.332031 106.441406 110.230469 C 106.347656 110.226562 105.613281 110.195312 105.253906 110.238281 C 105.253906 110.238281 105.265625 110.238281 105.277344 110.238281 C 105.253906 110.242188 105.230469 110.242188 105.207031 110.242188 C 103.683594 110.394531 102.5625 112.601562 102.703125 115.171875 C 102.808594 117.140625 103.625 118.746094 104.6875 119.328125 C 103.71875 118.671875 102.992188 117.136719 102.890625 115.285156 C 102.753906 112.714844 103.871094 110.507812 105.398438 110.359375 C 105.75 110.324219 106.089844 110.402344 106.410156 110.574219 C 107.382812 111.226562 108.121094 112.765625 108.222656 114.621094 C 108.363281 117.199219 107.242188 119.402344 105.71875 119.550781 Z M 169.148438 39.566406 C 168.882812 39.550781 168.617188 39.554688 168.355469 39.550781 C 168.695312 39.558594 169.035156 39.558594 169.378906 39.582031 C 169.300781 39.574219 169.214844 39.570312 169.148438 39.566406 Z M 155.472656 47.136719 C 158.617188 44.269531 162.171875 42.484375 166 42.105469 C 180.589844 40.65625 193.550781 60.078125 194.941406 85.476562 C 196.292969 110.296875 186.101562 131.636719 172.015625 133.945312 C 172.097656 133.9375 172.183594 133.9375 172.261719 133.933594 C 187.007812 132.46875 197.820312 110.484375 196.417969 84.824219 C 195.015625 59.167969 181.925781 39.550781 167.179688 41.015625 C 162.871094 41.441406 158.90625 43.628906 155.472656 47.136719 Z M 165.839844 66.765625 C 165.804688 66.761719 165.769531 66.757812 165.742188 66.753906 C 165.628906 66.75 165.515625 66.75 165.402344 66.75 C 165.542969 66.75 165.691406 66.75 165.839844 66.765625 Z M 112.714844 95.003906 C 112.773438 95.019531 112.828125 95.023438 112.871094 95.035156 C 112.898438 95.042969 112.917969 95.054688 112.945312 95.058594 C 112.871094 95.039062 112.792969 95.023438 112.714844 95.003906 Z M 108.140625 101.257812 C 108.160156 101.261719 108.171875 101.269531 108.191406 101.273438 C 108.140625 101.261719 108.089844 101.253906 108.042969 101.238281 C 108.078125 101.246094 108.117188 101.253906 108.140625 101.257812 Z M 116.453125 132.804688 C 122.667969 132.1875 127.238281 123.183594 126.671875 112.695312 C 126.132812 102.863281 121.257812 95.214844 115.527344 94.808594 C 115.15625 94.777344 112.144531 94.65625 110.664062 94.832031 C 110.679688 94.832031 110.714844 94.835938 110.742188 94.839844 C 110.652344 94.84375 110.5625 94.84375 110.472656 94.851562 C 106.253906 95.269531 102.792969 99.539062 101.160156 105.511719 C 99.847656 108.0625 99.132812 111.488281 99.335938 115.183594 C 99.535156 118.898438 100.632812 122.15625 102.21875 124.421875 C 103.699219 128.027344 105.847656 130.773438 108.332031 132.136719 C 106.390625 130.8125 104.699219 128.621094 103.417969 125.847656 C 103.914062 126.332031 104.4375 126.734375 104.988281 127.035156 C 104.339844 126.589844 103.730469 126.007812 103.171875 125.308594 C 103.136719 125.21875 103.097656 125.140625 103.058594 125.050781 C 102.742188 124.683594 102.453125 124.269531 102.171875 123.832031 C 100.90625 121.644531 100.050781 118.746094 99.875 115.511719 C 99.476562 108.179688 102.671875 101.886719 107.015625 101.457031 C 108.019531 101.355469 108.992188 101.582031 109.90625 102.074219 C 112.6875 103.9375 114.78125 108.320312 115.074219 113.625 C 115.472656 120.953125 112.273438 127.246094 107.929688 127.675781 C 108.835938 127.589844 109.242188 127.636719 110.632812 127.496094 C 114.949219 127.070312 118.128906 120.8125 117.730469 113.527344 C 117.355469 106.695312 113.96875 101.382812 109.992188 101.097656 C 109.730469 101.082031 107.636719 100.996094 106.609375 101.117188 C 106.621094 101.117188 106.644531 101.117188 106.660156 101.121094 C 106.597656 101.121094 106.539062 101.121094 106.476562 101.128906 C 105.1875 101.257812 104.007812 101.910156 102.984375 102.945312 C 104.835938 98.601562 107.785156 95.667969 111.25 95.320312 C 112.6875 95.183594 114.082031 95.503906 115.386719 96.195312 C 119.398438 98.871094 122.425781 105.191406 122.84375 112.835938 C 123.417969 123.386719 118.816406 132.4375 112.5625 133.058594 C 113.867188 132.929688 114.453125 132.996094 116.453125 132.804688 Z M 152.058594 134.726562 L 155.777344 139.046875 C 155.777344 139.046875 156.859375 140.125 155.34375 140.777344 C 153.824219 141.425781 149.269531 143.355469 149.269531 143.355469 C 149.269531 143.355469 147.972656 143.921875 148.632812 141.960938 C 149.292969 140 150.933594 135.113281 150.933594 135.113281 C 150.933594 135.113281 151.109375 133.699219 152.058594 134.726562 Z M 148.703125 132.554688 C 148.703125 132.554688 146.277344 140.320312 145.199219 143.527344 C 144.121094 146.734375 146.242188 145.808594 146.242188 145.808594 C 146.242188 145.808594 153.699219 142.648438 156.183594 141.589844 C 158.667969 140.523438 156.890625 138.753906 156.890625 138.753906 L 150.8125 131.6875 C 149.246094 130.007812 148.703125 132.554688 148.703125 132.554688 Z M 112.710938 131.265625 C 112.742188 131.261719 112.773438 131.261719 112.804688 131.261719 C 118.386719 130.703125 122.480469 122.378906 121.949219 112.664062 C 121.417969 102.945312 116.460938 95.519531 110.878906 96.070312 C 109.246094 96.234375 107.742188 97.0625 106.445312 98.390625 C 107.632812 97.304688 108.980469 96.628906 110.425781 96.484375 C 115.953125 95.933594 120.863281 103.292969 121.390625 112.910156 C 121.902344 122.3125 118.042969 130.386719 112.710938 131.265625 Z M 103.632812 172.402344 C 103.640625 172.402344 103.652344 172.40625 103.660156 172.410156 C 103.632812 172.402344 103.605469 172.398438 103.578125 172.390625 C 103.597656 172.394531 103.617188 172.398438 103.632812 172.402344 Z M 81.546875 186.046875 L 98.703125 179.648438 C 98.703125 179.820312 98.703125 179.996094 98.714844 180.175781 C 98.730469 180.472656 98.761719 180.761719 98.796875 181.046875 Z M 84.542969 193.96875 C 81.839844 194.238281 79.363281 191.539062 79.007812 187.945312 C 78.960938 187.480469 78.953125 187.023438 78.980469 186.578125 C 78.121094 186.261719 76.066406 185.605469 74.089844 185.730469 C 75.03125 185.089844 78.070312 184.992188 79.242188 184.980469 C 79.257812 184.90625 79.277344 184.832031 79.300781 184.757812 C 78.550781 184.421875 76.726562 183.816406 73.230469 183.882812 C 74.957031 183.082031 78.730469 183.035156 80.089844 183.050781 C 80.117188 183 80.152344 182.949219 80.1875 182.898438 C 79.257812 182.550781 76.796875 181.75 74 181.875 C 77.144531 180.867188 80.082031 181.550781 81.132812 181.867188 C 81.746094 181.359375 82.464844 181.03125 83.253906 180.953125 C 83.722656 180.90625 84.1875 180.964844 84.640625 181.085938 C 84.191406 181.25 83.921875 181.347656 83.886719 181.355469 C 81.480469 181.941406 79.851562 184.359375 80.164062 187.609375 C 80.492188 191.070312 82.828125 193.421875 85.554688 193.71875 C 85.230469 193.84375 84.894531 193.9375 84.542969 193.96875 Z M 98.785156 178.113281 C 98.730469 178.574219 98.699219 179.046875 98.699219 179.535156 L 80.867188 184.980469 Z M 104.703125 169.699219 C 104.285156 169.71875 103.980469 169.734375 103.828125 169.746094 C 101.234375 170.003906 99.324219 173.0625 98.949219 177.0625 C 98.878906 177.378906 98.832031 177.703125 98.789062 178.035156 L 81.871094 183.632812 L 98.882812 177.011719 C 98.921875 176.617188 98.972656 176.222656 99.042969 175.84375 C 94.492188 177.492188 88.070312 179.84375 85.273438 180.855469 C 83.152344 179.554688 80.421875 179.019531 77.726562 179.285156 C 72.386719 179.816406 69.328125 184.183594 69.882812 189.761719 C 70.429688 195.339844 74.988281 199.707031 80.324219 199.175781 C 83.558594 198.859375 86.296875 196.464844 87.832031 193.386719 C 90.65625 192.507812 98.320312 190.035156 102.945312 188.546875 C 103.144531 188.691406 103.351562 188.832031 103.558594 188.941406 C 103.375 188.816406 103.191406 188.675781 103.015625 188.527344 C 103.027344 188.519531 103.035156 188.515625 103.046875 188.515625 C 102.921875 188.425781 102.800781 188.316406 102.679688 188.214844 C 102.144531 187.695312 101.648438 187.0625 101.207031 186.320312 C 101.421875 186.507812 101.644531 186.667969 101.871094 186.792969 C 101.152344 186.300781 100.515625 185.492188 100.027344 184.476562 C 99.667969 183.640625 99.386719 182.722656 99.183594 181.75 C 99.105469 181.300781 99.042969 180.839844 99.015625 180.359375 C 98.792969 176.265625 100.578125 172.753906 103.003906 172.511719 C 103.566406 172.457031 104.105469 172.582031 104.617188 172.859375 C 106.171875 173.898438 107.339844 176.34375 107.5 179.308594 C 107.726562 183.398438 105.9375 186.914062 103.515625 187.152344 C 104.019531 187.101562 104.25 187.132812 105.023438 187.054688 C 107.433594 186.8125 109.207031 183.320312 108.984375 179.253906 C 108.777344 175.441406 106.886719 172.46875 104.664062 172.3125 C 104.519531 172.300781 103.351562 172.253906 102.777344 172.324219 C 102.789062 172.324219 102.796875 172.324219 102.796875 172.324219 C 102.773438 172.328125 102.734375 172.328125 102.703125 172.332031 C 101.621094 172.4375 100.667969 173.199219 99.957031 174.375 C 100.792969 171.890625 102.332031 170.179688 104.242188 169.984375 C 104.933594 169.917969 105.617188 170.070312 106.273438 170.378906 C 106.34375 170.417969 106.421875 170.453125 106.496094 170.496094 C 108.597656 171.902344 110.269531 175.117188 110.65625 179 C 111.195312 184.429688 109.007812 189.09375 105.777344 189.414062 C 105.878906 189.40625 106.195312 189.390625 106.652344 189.375 L 110.652344 229.730469 C 109.402344 232.25 108.726562 235.589844 108.925781 239.191406 C 109.15625 243.492188 110.585938 247.183594 112.605469 249.414062 L 113.308594 256.511719 L 112.816406 249.640625 C 113.359375 250.199219 113.941406 250.660156 114.550781 250.996094 C 111.8125 249.125 109.746094 244.769531 109.457031 239.519531 C 109.058594 232.214844 112.242188 225.945312 116.574219 225.515625 C 117.480469 225.429688 118.359375 225.617188 119.195312 226.011719 C 122.039062 227.765625 124.214844 232.296875 124.515625 237.792969 C 124.65625 240.347656 124.367188 242.761719 123.753906 244.855469 C 122.5625 248.675781 120.261719 251.359375 117.484375 251.636719 C 118.386719 251.546875 122.46875 251.441406 123.851562 251.308594 C 128.148438 250.882812 131.328125 244.738281 130.933594 237.480469 C 130.558594 230.675781 127.199219 225.46875 123.230469 225.1875 C 122.972656 225.167969 116.652344 225.171875 116.589844 225.171875 C 116.40625 225.167969 116.222656 225.171875 116.035156 225.191406 C 114.183594 225.375 112.542969 226.636719 111.304688 228.582031 L 108.480469 189.3125 C 111.625 189.210938 116.433594 189.078125 117.144531 189.007812 C 120.363281 188.683594 122.535156 184.050781 121.996094 178.652344 C 121.496094 173.59375 118.792969 169.65625 115.8125 169.445312 C 115.675781 169.4375 110.601562 169.53125 107.066406 169.625 L 106.894531 167.199219 L 173.328125 138.261719 L 104.292969 165.550781 Z M 158.359375 200.703125 C 158.316406 200.703125 158.273438 200.703125 158.234375 200.703125 C 158.285156 200.703125 158.34375 200.703125 158.394531 200.707031 C 158.394531 200.707031 158.371094 200.707031 158.359375 200.703125 Z M 152.054688 197.949219 C 152.082031 197.945312 152.109375 197.945312 152.140625 197.945312 C 157.355469 197.425781 161.183594 189.648438 160.683594 180.574219 C 160.1875 171.496094 155.558594 164.5625 150.34375 165.074219 C 148.816406 165.226562 147.414062 166 146.203125 167.242188 C 147.316406 166.226562 148.570312 165.597656 149.921875 165.464844 C 155.085938 164.953125 159.667969 171.820312 160.160156 180.808594 C 160.640625 189.585938 157.03125 197.132812 152.054688 197.949219 Z M 165.34375 253.75 C 165.324219 253.75 165.300781 253.75 165.285156 253.75 C 165.214844 253.746094 165.144531 253.746094 165.078125 253.746094 C 165.167969 253.746094 165.257812 253.746094 165.34375 253.75 Z M 157.484375 205.972656 C 157.425781 205.96875 156.984375 205.949219 156.765625 205.976562 L 156.777344 205.976562 C 156.765625 205.976562 156.753906 205.976562 156.738281 205.976562 C 155.820312 206.070312 155.144531 207.394531 155.234375 208.941406 C 155.296875 210.128906 155.789062 211.097656 156.425781 211.445312 C 155.847656 211.046875 155.402344 210.125 155.34375 209.011719 C 155.261719 207.464844 155.933594 206.136719 156.851562 206.046875 C 157.066406 206.027344 157.269531 206.074219 157.460938 206.175781 C 158.050781 206.570312 158.488281 207.496094 158.554688 208.613281 C 158.640625 210.160156 157.964844 211.488281 157.046875 211.582031 C 157.238281 211.5625 157.324219 211.570312 157.617188 211.542969 C 158.53125 211.449219 159.199219 210.132812 159.113281 208.59375 C 159.035156 207.152344 158.320312 206.03125 157.484375 205.972656 Z M 158.332031 200.828125 C 158.351562 200.832031 158.375 200.835938 158.394531 200.839844 C 158.40625 200.84375 158.410156 200.847656 158.417969 200.847656 C 158.394531 200.84375 158.363281 200.835938 158.332031 200.828125 Z M 159.496094 200.746094 C 159.335938 200.734375 158.089844 200.683594 157.484375 200.753906 C 157.488281 200.757812 157.503906 200.757812 157.507812 200.757812 C 157.472656 200.761719 157.4375 200.761719 157.402344 200.765625 C 154.8125 201.023438 152.910156 204.765625 153.148438 209.132812 C 153.328125 212.46875 154.71875 215.203125 156.515625 216.191406 C 154.875 215.070312 153.640625 212.464844 153.472656 209.328125 C 153.230469 204.964844 155.132812 201.21875 157.722656 200.960938 C 158.316406 200.898438 158.898438 201.039062 159.445312 201.328125 C 161.097656 202.4375 162.347656 205.046875 162.519531 208.203125 C 162.753906 212.570312 160.855469 216.3125 158.265625 216.574219 C 158.804688 216.519531 159.050781 216.546875 159.875 216.464844 C 162.445312 216.210938 164.335938 212.488281 164.101562 208.148438 C 163.875 204.078125 161.863281 200.917969 159.496094 200.746094 Z M 152.066406 164.082031 C 152.113281 164.089844 152.167969 164.101562 152.199219 164.113281 C 152.222656 164.117188 152.242188 164.125 152.265625 164.132812 C 152.199219 164.113281 152.132812 164.097656 152.066406 164.082031 Z M 147.789062 169.921875 C 147.800781 169.921875 147.816406 169.929688 147.832031 169.933594 C 147.785156 169.921875 147.738281 169.914062 147.691406 169.902344 C 147.730469 169.910156 147.765625 169.914062 147.789062 169.921875 Z M 154.6875 163.898438 C 154.335938 163.871094 151.519531 163.757812 150.140625 163.921875 C 150.160156 163.921875 150.1875 163.921875 150.214844 163.925781 C 150.128906 163.929688 150.042969 163.929688 149.964844 163.9375 C 146.023438 164.332031 142.789062 168.316406 141.269531 173.890625 C 140.039062 176.273438 139.375 179.476562 139.5625 182.929688 C 139.75 186.417969 140.785156 189.472656 142.28125 191.589844 C 143.65625 194.9375 145.652344 197.496094 147.964844 198.761719 C 146.152344 197.527344 144.566406 195.476562 143.367188 192.882812 C 143.832031 193.339844 144.328125 193.714844 144.84375 194 C 142.269531 192.242188 140.335938 188.15625 140.066406 183.234375 C 139.6875 176.386719 142.675781 170.511719 146.738281 170.105469 C 147.671875 170.015625 148.578125 170.226562 149.433594 170.683594 C 152.03125 172.421875 153.988281 176.519531 154.257812 181.472656 C 154.632812 188.320312 151.644531 194.195312 147.589844 194.597656 C 148.433594 194.515625 148.8125 194.558594 150.113281 194.429688 C 154.144531 194.027344 157.117188 188.1875 156.742188 181.382812 C 156.390625 175 153.230469 170.039062 149.511719 169.773438 C 149.269531 169.753906 147.3125 169.671875 146.351562 169.789062 C 146.371094 169.792969 146.386719 169.792969 146.40625 169.792969 C 146.347656 169.796875 146.289062 169.796875 146.230469 169.800781 C 145.03125 169.917969 143.921875 170.53125 142.972656 171.492188 C 144.699219 167.441406 147.453125 164.699219 150.691406 164.375 C 152.027344 164.246094 153.324219 164.542969 154.546875 165.191406 C 158.300781 167.683594 161.125 173.59375 161.515625 180.734375 C 162.054688 190.589844 157.757812 199.046875 151.917969 199.628906 C 153.132812 199.507812 153.679688 199.574219 155.546875 199.386719 C 161.355469 198.8125 165.628906 190.402344 165.09375 180.605469 C 164.589844 171.421875 160.042969 164.277344 154.6875 163.898438 Z M 102.371094 182.46875 C 102.550781 182.457031 102.632812 182.464844 102.902344 182.4375 C 103.761719 182.351562 104.390625 181.117188 104.3125 179.671875 C 104.234375 178.320312 103.566406 177.269531 102.777344 177.210938 C 102.726562 177.207031 102.3125 177.191406 102.109375 177.214844 C 102.109375 177.214844 102.117188 177.214844 102.121094 177.214844 C 102.121094 177.214844 102.09375 177.214844 102.082031 177.214844 C 101.222656 177.300781 100.589844 178.546875 100.667969 180 C 100.730469 181.109375 101.191406 182.019531 101.785156 182.34375 C 101.242188 181.972656 100.832031 181.105469 100.773438 180.066406 C 100.695312 178.609375 101.328125 177.367188 102.191406 177.28125 C 102.386719 177.265625 102.578125 177.304688 102.761719 177.40625 C 103.3125 177.773438 103.722656 178.640625 103.785156 179.691406 C 103.863281 181.140625 103.230469 182.386719 102.371094 182.46875 Z M 174.101562 319.246094 L 148.148438 320.3125 L 173.792969 316.929688 L 147.289062 318.386719 L 166.820312 315.109375 L 148.0625 316.042969 L 161.796875 313.425781 L 148.878906 313.976562 C 147.078125 315.476562 146.027344 318.144531 146.316406 321.0625 C 146.578125 323.742188 147.921875 326 149.742188 327.214844 L 152.511719 321.457031 L 168.335938 320.054688 Z M 145.671875 186.765625 C 145.972656 186.738281 146.109375 186.753906 146.570312 186.710938 C 147.996094 186.566406 149.050781 184.496094 148.921875 182.085938 C 148.792969 179.820312 147.671875 178.0625 146.351562 177.96875 C 146.269531 177.960938 145.578125 177.929688 145.238281 177.972656 C 145.238281 177.972656 145.25 177.972656 145.253906 177.976562 C 145.234375 177.976562 145.214844 177.972656 145.191406 177.976562 C 143.753906 178.117188 142.695312 180.207031 142.828125 182.628906 C 142.929688 184.488281 143.703125 186.007812 144.699219 186.554688 C 143.785156 185.929688 143.101562 184.484375 143.003906 182.738281 C 142.871094 180.3125 143.933594 178.226562 145.371094 178.085938 C 145.703125 178.050781 146.027344 178.128906 146.328125 178.289062 C 147.253906 178.90625 147.941406 180.359375 148.039062 182.113281 C 148.167969 184.539062 147.113281 186.628906 145.671875 186.765625 Z M 147.789062 169.714844 C 147.773438 169.710938 147.746094 169.707031 147.734375 169.707031 C 147.667969 169.703125 147.601562 169.703125 147.535156 169.703125 C 147.621094 169.703125 147.707031 169.703125 147.789062 169.714844 Z M 130.191406 225.066406 L 124.960938 172.28125 L 164.277344 156.738281 L 170.203125 216.484375 Z M 124.027344 171.191406 L 129.746094 228.835938 L 174.371094 220.375 L 167.777344 153.894531 Z M 103.632812 172.277344 C 103.632812 172.277344 103.613281 172.277344 103.601562 172.273438 C 103.5625 172.273438 103.523438 172.273438 103.484375 172.273438 C 103.535156 172.273438 103.585938 172.273438 103.632812 172.277344 Z M 137.273438 208.476562 C 137.113281 205.550781 135.582031 203.324219 133.847656 203.492188 C 132.117188 203.664062 130.851562 206.175781 131.007812 209.097656 C 131.167969 212.019531 132.699219 214.253906 134.429688 214.082031 C 136.160156 213.910156 137.433594 211.398438 137.273438 208.476562 Z M 153.054688 163.382812 C 152.960938 163.378906 152.867188 163.378906 152.773438 163.378906 C 152.894531 163.382812 153.015625 163.382812 153.140625 163.390625 C 153.113281 163.386719 153.078125 163.386719 153.054688 163.382812 Z M 177.332031 306.464844 C 168.378906 307.351562 160.269531 308.335938 154.257812 309.226562 C 154.347656 308.261719 164.546875 306.484375 177.210938 305.226562 C 189.871094 303.976562 200.226562 303.71875 200.5 304.644531 C 194.433594 304.953125 186.285156 305.578125 177.332031 306.464844 Z M 183.570312 323.46875 C 181.359375 323.6875 179.347656 321.773438 178.894531 319.125 C 179.308594 321.402344 181.050781 323.035156 182.953125 322.84375 C 184.984375 322.644531 186.425781 320.445312 186.179688 317.933594 C 185.925781 315.421875 184.082031 313.550781 182.050781 313.75 C 180.152344 313.941406 178.761719 315.886719 178.800781 318.195312 C 178.730469 315.511719 180.324219 313.238281 182.535156 313.019531 C 184.863281 312.789062 186.988281 314.941406 187.273438 317.828125 C 187.558594 320.710938 185.898438 323.238281 183.570312 323.46875 Z M 160.398438 297.804688 L 156.914062 305.027344 C 156.539062 305.089844 156.175781 305.152344 155.832031 305.210938 Z M 158.519531 304.773438 C 157.984375 304.851562 157.484375 304.933594 157.007812 305.015625 L 161.710938 297.367188 Z M 160.464844 304.476562 C 159.839844 304.570312 159.242188 304.660156 158.667969 304.746094 L 163.332031 296.898438 Z M 162.730469 304.15625 C 162.007812 304.253906 161.3125 304.355469 160.644531 304.453125 L 164.867188 296.808594 Z M 164.960938 303.855469 C 164.261719 303.945312 163.578125 304.039062 162.921875 304.128906 L 166.390625 296.59375 Z M 167.542969 303.519531 C 166.746094 303.621094 165.96875 303.722656 165.21875 303.820312 L 167.988281 296.5625 Z M 169.953125 303.21875 C 169.242188 303.308594 168.554688 303.394531 167.878906 303.480469 L 169.6875 296.269531 Z M 171.609375 296.097656 L 172.503906 302.914062 C 171.789062 302.996094 171.089844 303.082031 170.398438 303.164062 Z M 174.21875 295.882812 L 175.308594 302.585938 C 174.542969 302.675781 173.785156 302.761719 173.042969 302.851562 Z M 176.808594 295.539062 L 178.054688 302.28125 C 177.300781 302.363281 176.566406 302.449219 175.84375 302.527344 Z M 179.679688 295.296875 L 181.164062 301.945312 C 180.3125 302.035156 179.476562 302.125 178.644531 302.21875 Z M 182.476562 295.085938 L 184.402344 301.609375 C 183.507812 301.699219 182.621094 301.789062 181.75 301.882812 Z M 174.175781 326.785156 C 176.605469 326.625 178.707031 326.484375 180.09375 326.386719 C 178.703125 326.484375 176.601562 326.625 174.175781 326.785156 Z M 164.921875 253.992188 C 164.9375 253.996094 164.957031 254.007812 164.96875 254.007812 C 164.921875 253.992188 164.871094 253.984375 164.824219 253.976562 C 164.859375 253.980469 164.894531 253.984375 164.921875 253.992188 Z M 154.054688 260.660156 C 154.0625 260.664062 154.070312 260.667969 154.082031 260.667969 C 154.050781 260.660156 154.027344 260.65625 154 260.648438 C 154.015625 260.65625 154.042969 260.65625 154.054688 260.660156 Z M 150.019531 271.617188 C 150.015625 271.617188 150.015625 271.613281 150.015625 271.609375 L 149.992188 271.621094 C 149.910156 271.382812 149.84375 271.132812 149.78125 270.871094 L 149.792969 270.867188 C 149.789062 270.855469 149.785156 270.851562 149.785156 270.839844 L 149.773438 270.847656 C 149.675781 270.457031 149.597656 270.050781 149.539062 269.628906 C 149.660156 270.320312 149.816406 270.988281 150.019531 271.617188 Z M 150.164062 272.070312 C 150.109375 271.929688 150.050781 271.792969 150 271.648438 L 150.023438 271.632812 C 150.066406 271.777344 150.113281 271.925781 150.164062 272.070312 Z M 120.320312 291.867188 L 149.8125 271.773438 C 149.910156 272.046875 150.023438 272.308594 150.140625 272.554688 Z M 123.316406 296.167969 C 121.972656 297.082031 119.890625 296.375 118.671875 294.582031 C 117.453125 292.789062 117.554688 290.59375 118.902344 289.679688 C 119.265625 289.429688 119.6875 289.316406 120.121094 289.296875 C 119.699219 289.578125 119.453125 289.742188 119.4375 289.757812 C 118.1875 290.605469 118.09375 292.640625 119.222656 294.300781 C 120.355469 295.957031 122.28125 296.617188 123.527344 295.769531 C 123.527344 295.769531 123.679688 295.667969 123.933594 295.5 C 123.769531 295.757812 123.574219 295.992188 123.316406 296.167969 Z M 149.570312 271.019531 C 149.640625 271.265625 149.714844 271.515625 149.800781 271.746094 L 120.453125 291 Z M 149.433594 270.507812 C 149.472656 270.671875 149.515625 270.828125 149.5625 270.988281 L 120.726562 290.117188 Z M 97.785156 304.535156 L 115.976562 293.125 C 116.046875 293.492188 116.148438 293.863281 116.289062 294.234375 Z M 115.878906 291.859375 C 115.859375 292.257812 115.890625 292.675781 115.972656 293.09375 L 98.464844 302.902344 Z M 230.476562 312.253906 C 230.09375 308.382812 227.28125 305.402344 223.875 304.9375 L 223.316406 299.292969 L 223.285156 299.296875 C 223.296875 299.277344 223.3125 299.253906 223.308594 299.238281 C 223.292969 299.042969 222.316406 298.945312 220.570312 298.945312 C 219.523438 297.597656 214.554688 291.808594 214.542969 291.660156 C 214.507812 291.371094 206.285156 291.113281 195.050781 291.828125 L 194.019531 281.105469 C 194.496094 281.058594 194.839844 281.019531 195.007812 281.003906 C 200.648438 280.445312 204.527344 272.980469 203.585938 263.507812 C 202.933594 256.960938 200.203125 251.65625 196.710938 249.164062 L 229.949219 242.804688 L 183.941406 245.355469 L 113.527344 258.703125 L 158.644531 255.757812 C 158.378906 256.390625 158.140625 257.054688 157.9375 257.757812 C 156.265625 257.863281 154.730469 257.960938 154.25 258.003906 C 151.632812 258.265625 149.710938 261.359375 149.347656 265.40625 C 149.15625 266.347656 149.078125 267.371094 149.136719 268.433594 C 149.164062 268.945312 149.234375 269.433594 149.316406 269.902344 C 141.867188 274.800781 125.949219 285.410156 120.960938 288.738281 C 119.699219 288.207031 118.382812 288.222656 117.371094 288.914062 C 116.695312 289.371094 116.25 290.0625 116.03125 290.871094 C 111.710938 293.210938 98.476562 300.839844 98.167969 301.046875 C 96.027344 302.507812 95.863281 305.996094 97.804688 308.84375 C 99.421875 311.214844 101.980469 312.386719 104.027344 311.878906 C 104.59375 311.773438 105.210938 311.5625 105.851562 311.171875 C 106.109375 311.011719 106.34375 310.832031 106.546875 310.644531 C 106.839844 310.371094 117.570312 301.40625 121.246094 298.410156 C 122.050781 298.484375 122.820312 298.324219 123.472656 297.878906 C 124.429688 297.230469 124.921875 296.101562 124.953125 294.828125 C 130.019531 291.5 147.269531 280.167969 152.941406 276.472656 C 153.273438 276.761719 153.617188 277.007812 153.980469 277.199219 C 153.09375 276.613281 152.28125 275.707031 151.609375 274.5625 C 151.828125 274.753906 152.054688 274.921875 152.292969 275.054688 C 151.992188 274.847656 151.710938 274.574219 151.441406 274.269531 C 150.597656 272.726562 149.992188 270.792969 149.785156 268.660156 C 149.640625 267.246094 149.691406 265.886719 149.890625 264.640625 C 150.550781 262.464844 151.851562 260.929688 153.425781 260.773438 C 153.984375 260.714844 154.527344 260.839844 155.035156 261.117188 C 156.59375 262.15625 157.761719 264.601562 157.921875 267.566406 C 158.148438 271.660156 156.359375 275.171875 153.9375 275.414062 C 154.441406 275.363281 154.667969 275.390625 155.445312 275.3125 C 157.855469 275.074219 159.628906 271.582031 159.40625 267.511719 C 159.199219 263.695312 157.3125 260.730469 155.085938 260.570312 C 154.941406 260.5625 153.769531 260.515625 153.195312 260.582031 C 153.203125 260.585938 153.214844 260.585938 153.214844 260.585938 C 153.191406 260.585938 153.160156 260.585938 153.125 260.589844 C 152.042969 260.695312 151.085938 261.457031 150.378906 262.632812 C 151.214844 260.148438 152.75 258.4375 154.660156 258.246094 C 155.410156 258.171875 156.144531 258.34375 156.839844 258.703125 C 158.980469 260.085938 160.6875 263.332031 161.078125 267.257812 C 161.613281 272.691406 159.433594 277.351562 156.199219 277.671875 C 156.519531 277.640625 158.210938 277.515625 160.015625 277.378906 C 161.425781 279.96875 163.226562 281.941406 165.210938 282.996094 C 163.5625 281.910156 162.0625 280.175781 160.84375 277.992188 C 161.414062 278.554688 162.023438 279.015625 162.660156 279.339844 C 161.894531 278.851562 161.179688 278.171875 160.53125 277.339844 C 162.375 277.203125 164.210938 277.058594 164.710938 277.011719 C 167.921875 276.691406 170.089844 272.058594 169.558594 266.660156 C 169.054688 261.597656 166.351562 257.660156 163.371094 257.453125 C 163.273438 257.445312 161.359375 257.550781 159.296875 257.675781 C 160.453125 255.738281 162.019531 254.464844 163.824219 254.222656 C 164.800781 254.09375 165.765625 254.285156 166.675781 254.734375 C 169.460938 256.46875 171.652344 260.695312 172.101562 265.878906 C 172.730469 273.042969 169.804688 279.3125 165.5625 279.875 C 166.441406 279.757812 166.847656 279.789062 168.199219 279.609375 C 172.417969 279.050781 175.328125 272.828125 174.703125 265.699219 C 174.121094 259.023438 170.632812 253.929688 166.726562 253.777344 C 166.46875 253.765625 164.417969 253.75 163.414062 253.902344 C 163.429688 253.90625 163.449219 253.90625 163.464844 253.90625 C 163.40625 253.910156 163.34375 253.910156 163.285156 253.917969 C 161.644531 254.140625 160.210938 255.21875 159.085938 256.863281 C 160.585938 252.8125 163.203125 250.054688 166.410156 249.738281 C 167.714844 249.609375 169.007812 249.90625 170.234375 250.539062 C 173.984375 252.960938 176.984375 258.660156 177.667969 265.554688 C 178.613281 275.085938 174.777344 283.265625 169.101562 283.828125 C 169.550781 283.785156 173.097656 283.398438 177.4375 282.921875 C 177.972656 282.394531 183.558594 277.101562 190.21875 276.511719 C 192.234375 276.441406 193.738281 277.773438 193.824219 279.164062 L 193.875 279.667969 C 193.792969 278.273438 192.386719 278.011719 190.375 278.082031 C 183.367188 278.699219 177.382812 282.972656 177.382812 282.972656 L 178.390625 293.480469 C 167.234375 294.984375 159.222656 296.851562 159.253906 297.140625 C 159.261719 297.265625 156.527344 302.160156 155.265625 304.523438 L 159.503906 297.652344 L 155.753906 305.222656 C 155.46875 305.273438 155.199219 305.324219 154.941406 305.375 L 154.8125 305.378906 C 154.8125 305.386719 154.808594 305.390625 154.800781 305.398438 C 152.671875 305.800781 151.488281 306.132812 151.511719 306.355469 C 151.515625 306.375 151.53125 306.390625 151.554688 306.40625 L 151.515625 306.410156 L 152.140625 312.691406 C 151.992188 312.703125 151.871094 312.71875 151.785156 312.726562 C 150.84375 312.816406 149.976562 313.171875 149.222656 313.714844 L 159.40625 312.15625 L 159.375 312.15625 C 167.351562 311.582031 178.800781 310.78125 180.191406 310.644531 C 176.703125 310.988281 174.226562 314.765625 174.652344 319.078125 C 175.078125 323.390625 178.253906 326.609375 181.738281 326.261719 C 181.492188 326.285156 180.953125 326.328125 180.199219 326.382812 C 177.488281 326.039062 176.515625 324.957031 176.515625 324.957031 L 173.019531 325.085938 L 172.308594 323.882812 L 175.324219 323.0625 L 171.992188 323.347656 L 171.203125 322.007812 L 174.570312 321.375 L 170.910156 321.507812 L 169.96875 319.90625 L 168.683594 322.476562 L 168.085938 323.675781 L 167.835938 324.1875 L 167.277344 325.296875 L 166.894531 326.074219 L 161.375 337.136719 L 168.648438 337.136719 L 171.53125 331.636719 L 171.164062 337.136719 L 190.226562 337.136719 L 191.734375 323.257812 L 202.796875 322.160156 C 203.761719 322.066406 204.34375 319.957031 204.097656 317.449219 C 204.015625 316.625 203.851562 315.867188 203.636719 315.214844 C 203.90625 315.183594 204.175781 315.152344 204.445312 315.121094 C 204.394531 311.113281 206.972656 307.675781 210.574219 306.9375 C 210.8125 306.886719 211.054688 306.847656 211.300781 306.824219 C 211.550781 306.796875 211.800781 306.789062 212.050781 306.789062 C 212.132812 306.789062 212.21875 306.796875 212.300781 306.800781 C 212.460938 306.8125 212.625 306.820312 212.785156 306.835938 C 212.882812 306.847656 212.984375 306.863281 213.085938 306.882812 C 213.222656 306.902344 213.359375 306.925781 213.496094 306.953125 C 213.605469 306.976562 213.714844 307.007812 213.824219 307.035156 C 213.945312 307.066406 214.066406 307.097656 214.191406 307.140625 C 214.304688 307.179688 214.417969 307.21875 214.523438 307.257812 C 214.632812 307.300781 214.742188 307.34375 214.847656 307.390625 C 214.96875 307.441406 215.082031 307.496094 215.203125 307.554688 C 215.292969 307.59375 215.386719 307.644531 215.472656 307.695312 C 215.597656 307.765625 215.726562 307.832031 215.84375 307.910156 C 215.910156 307.949219 215.980469 308 216.050781 308.046875 C 216.1875 308.136719 216.320312 308.226562 216.449219 308.324219 C 216.480469 308.347656 216.507812 308.375 216.542969 308.402344 C 217.597656 309.226562 218.464844 310.339844 219.042969 311.640625 C 219.042969 311.648438 219.042969 311.648438 219.046875 311.652344 C 219.140625 311.871094 219.230469 312.097656 219.308594 312.324219 C 219.3125 312.332031 219.3125 312.339844 219.316406 312.34375 C 219.394531 312.574219 219.464844 312.808594 219.527344 313.046875 C 219.640625 313.488281 219.726562 313.9375 219.773438 314.40625 C 220.230469 319.011719 217.175781 323.085938 212.957031 323.5 C 213.90625 323.410156 215.769531 323.027344 217.742188 322.589844 C 217.597656 322.660156 217.5 322.695312 217.5 322.695312 L 232.539062 337.136719 L 235.65625 337.136719 L 219.199219 321.597656 C 220.300781 320.609375 221.613281 318.824219 222.085938 315.726562 C 222.085938 315.730469 222.09375 315.738281 222.105469 315.753906 C 222.113281 315.757812 222.125 315.773438 222.132812 315.78125 C 222.144531 315.789062 222.15625 315.800781 222.167969 315.816406 C 222.183594 315.832031 222.203125 315.847656 222.21875 315.867188 C 222.234375 315.886719 222.257812 315.90625 222.277344 315.929688 C 222.304688 315.953125 222.335938 315.988281 222.367188 316.019531 C 222.378906 316.027344 222.378906 316.03125 222.382812 316.035156 C 222.476562 316.128906 222.589844 316.246094 222.722656 316.378906 C 222.742188 316.402344 222.769531 316.425781 222.785156 316.445312 C 222.847656 316.507812 222.90625 316.566406 222.972656 316.632812 C 222.976562 316.636719 222.984375 316.644531 222.988281 316.648438 C 225.484375 319.183594 232.996094 326.792969 243.214844 337.136719 L 251.132812 337.136719 L 230.195312 315.476562 C 230.476562 314.472656 230.585938 313.378906 230.476562 312.253906 Z M 136.371094 191.339844 C 136.339844 191.34375 136.304688 191.351562 136.269531 191.351562 C 136.28125 191.351562 136.292969 191.355469 136.292969 191.355469 C 136.5 191.335938 137.59375 191.285156 137.9375 191.273438 C 138.144531 191.265625 138.367188 191.1875 138.582031 190.992188 C 139.425781 190.25 138.101562 188.34375 138.101562 188.34375 L 132.914062 180.539062 C 132.914062 180.539062 132.316406 179.589844 131.339844 179.699219 C 131.105469 179.730469 129.847656 179.773438 129.746094 179.777344 C 129.730469 179.777344 129.71875 179.78125 129.707031 179.78125 C 130.644531 179.710938 131.230469 180.628906 131.230469 180.628906 L 136.417969 188.425781 C 136.417969 188.425781 137.734375 190.339844 136.898438 191.078125 C 136.726562 191.226562 136.554688 191.308594 136.386719 191.335938 C 136.332031 191.332031 135.863281 191.320312 135.527344 190.984375 C 133.929688 189.351562 128.734375 183.117188 128.734375 183.117188 C 128.597656 182.839844 127.191406 181.644531 128.792969 180.214844 C 128.933594 180.089844 129.066406 179.992188 129.199219 179.914062 C 128.988281 180.003906 128.773438 180.144531 128.542969 180.347656 C 126.929688 181.785156 128.226562 183.078125 128.363281 183.355469 L 134.949219 190.578125 C 134.949219 190.578125 135.609375 191.46875 136.371094 191.339844 Z M 215.601562 314.816406 C 215.328125 312.027344 213.027344 309.972656 210.472656 310.222656 C 207.910156 310.476562 206.058594 312.945312 206.335938 315.738281 C 206.613281 318.53125 208.914062 320.585938 211.472656 320.332031 C 214.027344 320.078125 215.878906 317.609375 215.601562 314.816406 Z M 138.484375 195.828125 C 138.46875 195.828125 138.449219 195.828125 138.449219 195.828125 C 138.367188 195.820312 138.304688 195.824219 138.238281 195.824219 C 138.320312 195.824219 138.402344 195.824219 138.484375 195.828125 Z M 137.757812 196.300781 C 137.789062 196.304688 137.828125 196.3125 137.847656 196.320312 C 137.863281 196.324219 137.878906 196.328125 137.894531 196.332031 C 137.84375 196.320312 137.800781 196.308594 137.757812 196.300781 Z M 134.847656 200.269531 C 134.859375 200.273438 134.867188 200.277344 134.878906 200.277344 C 134.84375 200.269531 134.816406 200.265625 134.785156 200.257812 C 134.804688 200.261719 134.832031 200.265625 134.847656 200.269531 Z M 139.539062 196.171875 C 139.300781 196.15625 137.390625 196.078125 136.449219 196.191406 C 136.460938 196.191406 136.484375 196.191406 136.5 196.191406 C 136.441406 196.195312 136.382812 196.195312 136.328125 196.203125 C 133.648438 196.46875 131.457031 199.171875 130.417969 202.960938 C 129.582031 204.582031 129.125 206.761719 129.253906 209.117188 C 129.382812 211.488281 130.082031 213.570312 131.101562 215.007812 C 132.035156 217.289062 133.394531 219.023438 134.964844 219.886719 C 133.734375 219.042969 132.660156 217.652344 131.839844 215.890625 C 132.160156 216.199219 132.496094 216.453125 132.847656 216.644531 C 131.09375 215.449219 129.777344 212.671875 129.597656 209.324219 C 129.339844 204.667969 131.371094 200.671875 134.128906 200.398438 C 134.769531 200.332031 135.386719 200.480469 135.964844 200.789062 C 137.734375 201.96875 139.0625 204.757812 139.246094 208.125 C 139.5 212.78125 137.472656 216.777344 134.710938 217.054688 C 135.289062 216.996094 135.546875 217.027344 136.429688 216.9375 C 139.171875 216.664062 141.1875 212.695312 140.9375 208.066406 C 140.699219 203.726562 138.550781 200.351562 136.019531 200.171875 C 135.855469 200.15625 134.527344 200.105469 133.875 200.183594 C 133.875 200.183594 133.898438 200.183594 133.90625 200.183594 C 133.867188 200.1875 133.828125 200.1875 133.789062 200.1875 C 132.976562 200.269531 132.230469 200.679688 131.582031 201.328125 C 132.753906 198.582031 134.625 196.71875 136.820312 196.5 C 137.734375 196.410156 138.625 196.617188 139.460938 197.0625 C 142.003906 198.761719 143.917969 202.773438 144.1875 207.625 C 144.554688 214.328125 141.625 220.078125 137.65625 220.472656 C 138.484375 220.390625 138.859375 220.433594 140.125 220.308594 C 144.078125 219.917969 146.980469 214.199219 146.613281 207.535156 C 146.273438 201.289062 143.179688 196.433594 139.539062 196.171875 Z M 134.847656 200.128906 C 134.835938 200.128906 134.824219 200.125 134.808594 200.125 C 134.765625 200.125 134.722656 200.125 134.679688 200.125 C 134.738281 200.125 134.792969 200.125 134.847656 200.128906 " fill-opacity="1" fill-rule="nonzero"/></g></svg>